Coordinates
version=1
nRows=12
nColumns=24
inDegrees=yes

Units are S.I. units (second, meters, Newtons, ...)
Angles are in degrees.

endheader
time	pelvis_tilt	pelvis_list	pelvis_rotation	pelvis_tx	pelvis_ty	pelvis_tz	hip_flexion_r	hip_adduction_r	hip_rotation_r	knee_angle_r	ankle_angle_r	subtalar_angle_r	mtp_angle_r	hip_flexion_l	hip_adduction_l	hip_rotation_l	knee_angle_l	ankle_angle_l	subtalar_angle_l	mtp_angle_l	lumbar_extension	lumbar_bending	lumbar_rotation
      3.82000000	     -9.54242240	      1.30076273	      1.02346440	     -1.73629919	     -0.02506013	     -0.72520410	     33.36967917	     -2.43492989	    -11.39833585	    -13.16755996	     -4.05318573	     -4.43627619	     10.89995625	     -5.19529604	      3.80933317	    -12.89544313	    -12.86539412	     11.70786524	      5.41853968	      7.53453145	      7.08845331	      1.23609961	     -9.70978061
      3.82500000	     -9.59083691	      1.13055546	      1.10593649	     -1.72981479	     -0.02557527	     -0.72456003	     33.37009402	     -2.24444670	    -11.16816925	    -13.76318413	     -4.46075724	     -5.04592185	     10.52536381	     -5.23317856	      3.45841540	    -12.75240292	    -13.50871402	     11.44766425	      5.56562953	      7.45738069	      7.30380001	      1.44390790	     -9.91273962
      3.83000000	     -9.62771884	      0.97527807	      0.96718720	     -1.72330070	     -0.02612898	     -0.72348174	     33.39378349	     -1.90108670	    -10.54638925	    -14.41644213	     -4.81357557	     -5.80583876	      8.88293186	     -5.27488439	      3.10022309	    -13.03170208	    -14.20366426	     11.27687384	      5.97031034	      7.16423591	      7.50362726	      1.65795680	     -9.82310739
      3.83500000	     -9.67691389	      0.79359696	      1.05652074	     -1.71678432	     -0.02649061	     -0.72272024	     33.37831349	     -1.70866095	    -10.40019091	    -14.95970290	     -5.38525678	     -6.48200117	      8.56210797	     -5.27116064	      2.72227645	    -12.84773335	    -14.90271912	     10.85849751	      6.05954825	      7.08539101	      7.72401037	      1.85813190	    -10.01739510
      3.84000000	     -9.71880030	      0.63141099	      0.97500301	     -1.71029881	     -0.02685665	     -0.72164449	     33.37889539	     -1.40904111	     -9.91728199	    -15.50318811	     -5.99880746	     -7.39854972	      7.76209768	     -5.25313031	      2.34199498	    -13.03915322	    -15.65856715	     10.48230458	      6.36669887	      6.93037103	      7.92094105	      2.06378478	    -10.01683089
      3.84500000	     -9.78224424	      0.36967542	      0.97968904	     -1.70373131	     -0.02713139	     -0.72078931	     33.38294700	     -1.10544527	     -9.76164517	    -16.02993420	     -6.61069388	     -8.11062403	      7.15401724	     -5.18439045	      1.86654442	    -13.00396795	    -16.45233337	     10.07340671	      6.50684425	      6.82443225	      8.15616949	      2.38024242	    -10.14062610
      3.85000000	     -9.82372467	      0.13564303	      0.80904272	     -1.69711253	     -0.02735120	     -0.71953520	     33.37282887	     -0.69618948	     -9.35735534	    -16.56575893	     -7.10009795	     -8.90398257	      5.75318877	     -5.13157100	      1.38928913	    -13.31869116	    -17.28814922	      9.63548493	      6.85517042	      6.63886813	      8.36551975	      2.66763417	    -10.00381527
      3.85500000	     -9.87964098	     -0.11289218	      0.86038747	     -1.69054346	     -0.02740245	     -0.71867933	     33.33620179	     -0.44241867	     -9.28499059	    -17.04010516	     -7.63002461	     -9.63158929	      5.20966431	     -4.99688157	      0.91330134	    -13.22668538	    -18.17432193	      9.01987411	      6.90673149	      6.53216252	      8.59333874	      2.94993006	    -10.21411938
      3.86000000	     -9.92391641	     -0.35982314	      0.69797077	     -1.68387505	     -0.02745293	     -0.71742607	     33.29391899	     -0.03018865	     -8.92138089	    -17.54004481	     -7.98386468	    -10.44572773	      3.75055554	     -4.87492745	      0.40518331	    -13.55072212	    -19.10430262	      8.42900352	      7.20100169	      6.41676491	      8.80995890	      3.25652671	    -10.09409991
      3.86500000	     -9.96630925	     -0.59963277	      0.74890740	     -1.67727393	     -0.02734843	     -0.71655863	     33.20537510	      0.21497608	     -8.88137095	    -17.97518904	     -8.33259570	    -11.18482426	      3.25761887	     -4.67183556	     -0.07436567	    -13.46779355	    -20.10709874	      7.66006061	      7.17064865	      6.31393880	      9.02311213	      3.53297963	    -10.27759944
      3.87000000	     -9.98911415	     -0.80752906	      0.56415900	     -1.67062056	     -0.02726201	     -0.71520849	     33.11378568	      0.61787935	     -8.48696881	    -18.47294394	     -8.40020209	    -11.95485605	      1.48323530	     -4.48399594	     -0.57047578	    -13.87334107	    -21.16419036	      6.88645676	      7.41142450	      6.33707191	      9.20565503	      3.79589775	    -10.15135393
      3.87500000	    -10.00256605	     -1.01330475	      0.60252781	     -1.66391545	     -0.02698030	     -0.71431690	     32.94025485	      0.84148048	     -8.51527897	    -18.85207941	     -8.50666401	    -12.58822548	      1.11608779	     -4.24286168	     -1.02257685	    -13.80763675	    -22.24869781	      5.89270380	      7.25921562	      6.22473213	      9.40705007	      4.03746660	    -10.29619436
